<svg id="Lager_1" data-name="Lager 1" xmlns="http://www.w3.org/2000/svg" viewBox="0 0 273.48 86.19"><title>made-by-tb_black</title><polygon points="94.36 61.94 79.1 61.94 82.83 55.48 88.01 46.5 95.64 59.72 98.27 55.16 88.01 37.4 71.22 66.49 91.73 66.49 94.36 61.94"/><polygon points="91.81 79.27 99.36 66.2 108.27 81.64 93.18 81.64 95.81 86.19 116.16 86.19 99.36 57.09 89.19 74.71 91.81 79.27"/><polygon points="90.66 81.26 90.66 81.26 89.5 79.25 83.1 68.18 77.85 68.18 85.62 81.64 85.19 81.64 67.79 81.64 75.56 68.18 70.31 68.18 59.91 86.19 82.56 86.19 93.5 86.19 90.66 81.26"/><path d="M125.23,51.82l-4.67.12c-1.82.06-2.57.22-3,.91A3.72,3.72,0,0,0,117,54c-.06.25-.16.38-.34.38s-.28-.16-.28-.5c0-.5.6-3.35.66-3.61.09-.41.19-.6.37-.6a7.33,7.33,0,0,0,1.35.38c.91.09,2.1.16,3.13.16h12.41a14.91,14.91,0,0,0,2.16-.16,7.54,7.54,0,0,1,.85-.16c.22,0,.25.19.25.66,0,.66-.09,2.82-.09,3.64,0,.31-.09.5-.28.5s-.31-.16-.35-.63l0-.35c-.06-.81-.91-1.69-3.7-1.76l-3.95-.09V64.68c0,2.88,0,5.36.16,6.71.09.88.28,1.57,1.22,1.69a13.07,13.07,0,0,0,1.6.12c.34,0,.5.09.5.25s-.25.31-.6.31c-2.07,0-4-.09-4.92-.09-.72,0-2.7.09-3.95.09-.41,0-.63-.09-.63-.31s.12-.25.5-.25a5.09,5.09,0,0,0,1.13-.12c.63-.12.81-.81.91-1.72.16-1.32.16-3.79.16-6.68Z"/><path d="M138.59,63.67c0-4.55,3.2-10.44,11.57-10.44,7,0,11.28,3.86,11.28,10S157,74.11,149.87,74.11C141.85,74.11,138.59,68.4,138.59,63.67Zm18.74.5c0-5.89-3.54-9.53-8-9.53-3.07,0-6.68,1.63-6.68,8.21,0,5.49,3.13,9.81,8.34,9.81C152.95,72.67,157.34,71.76,157.34,64.17Z"/><path d="M166.58,61.32c0-4,0-4.8,0-5.64s-.31-1.19-1.19-1.44a5.05,5.05,0,0,0-1.1-.09c-.28,0-.47-.09-.47-.28s.22-.25.63-.25c1.44,0,3.2.06,4,.06,1.13,0,3.32-.06,4.58-.06,3.45,0,4.7,1.13,5.14,1.5a4.62,4.62,0,0,1,1.38,3.2c0,3.76-3,6.46-6.93,6.46a7.2,7.2,0,0,1-.81,0,.32.32,0,0,1-.35-.28c0-.22.31-.34.91-.34a4.17,4.17,0,0,0,3.7-4.33,5,5,0,0,0-1.63-3.95,4.14,4.14,0,0,0-2.76-1,4.34,4.34,0,0,0-1.19.12c-.16.06-.22.22-.22.5V66c0,2.45,0,4.55.12,5.71.09.75.25,1.25,1.07,1.38a10.54,10.54,0,0,0,1.41.09c.31,0,.44.16.44.28s-.22.28-.5.28c-1.85,0-3.79-.09-4.51-.09s-2.38.09-3.48.09c-.35,0-.53-.09-.53-.28s.09-.28.44-.28a4,4,0,0,0,1-.09c.56-.12.72-.63.81-1.41.12-1.13.12-3.23.12-5.67Z"/><path d="M185.88,59.16c0-4.76,0-5.64-.06-6.64s-.31-1.57-1.35-1.79a6.52,6.52,0,0,0-1.22-.09c-.34,0-.53-.06-.53-.28s.22-.28.69-.28c1.66,0,3.63.09,4.26.09,1.54,0,2.76-.09,3.82-.09,5.67,0,6.68,3,6.68,4.7,0,2.57-1.47,4.11-3.2,5.49,2.57.88,5.71,3.1,5.71,6.77,0,3.35-2.6,6.83-8.37,6.83-.38,0-1.29-.06-2.19-.09s-1.88-.09-2.35-.09-1,0-1.79,0-1.54.06-2.16.06c-.41,0-.63-.09-.63-.31s.13-.25.5-.25a5.09,5.09,0,0,0,1.13-.12c.63-.12.78-.81.91-1.72.16-1.32.16-3.79.16-6.68Zm3.76.53c0,.25.09.31.22.35a7.75,7.75,0,0,0,1.47.09,3.19,3.19,0,0,0,2.26-.6,4.09,4.09,0,0,0,1.29-3.32c0-2.1-1.22-4.86-3.92-4.86a5.16,5.16,0,0,0-1,.06c-.22.06-.28.19-.28.53Zm4.14,2.51a4.51,4.51,0,0,0-2.6-.75c-.56,0-.88,0-1.35,0-.13,0-.19.06-.19.22v7.43c0,2.07.09,2.6,1.1,3a5.66,5.66,0,0,0,2.29.37,3.65,3.65,0,0,0,3.79-4A7.46,7.46,0,0,0,193.78,62.2Z"/><path d="M203.78,63.67c0-4.55,3.2-10.44,11.57-10.44,7,0,11.28,3.86,11.28,10s-4.45,10.91-11.57,10.91C207,74.11,203.78,68.4,203.78,63.67Zm18.74.5c0-5.89-3.54-9.53-8-9.53-3.07,0-6.68,1.63-6.68,8.21,0,5.49,3.13,9.81,8.34,9.81C218.14,72.67,222.52,71.76,222.52,64.17Z"/><path d="M231.77,61.32c0-4,0-4.8,0-5.64s-.31-1.19-1.19-1.44a5.06,5.06,0,0,0-1.1-.09c-.28,0-.47-.09-.47-.28s.22-.25.63-.25c1.44,0,3.2.06,3.76.06.94,0,3.45-.06,4.3-.06a9.66,9.66,0,0,1,5.23,1.13,4.66,4.66,0,0,1,1.94,3.67c0,2-1.13,3.73-3.82,5.89,2.45,3,4.39,5.42,6.05,7.08A5.17,5.17,0,0,0,250,73.14a2.62,2.62,0,0,0,.66.06.32.32,0,0,1,.34.28c0,.22-.19.28-.53.28h-2.63a6,6,0,0,1-3-.53c-1.19-.6-2.23-1.85-3.76-3.92-1.1-1.44-2.26-3.23-2.6-3.64a.63.63,0,0,0-.5-.19l-2.48-.06a.2.2,0,0,0-.22.22V66c0,2.48,0,4.55.16,5.67.09.78.22,1.29,1.07,1.41a10.35,10.35,0,0,0,1.35.09.32.32,0,0,1,.34.28c0,.19-.22.28-.56.28-1.6,0-3.89-.09-4.29-.09s-2.29.09-3.39.09c-.34,0-.53-.09-.53-.28s.09-.28.44-.28a4,4,0,0,0,1-.09c.56-.12.72-.63.81-1.41.12-1.13.12-3.23.12-5.67Zm3.51,2.07c0,.28.06.38.25.47a7.63,7.63,0,0,0,2.1.25,2.78,2.78,0,0,0,1.94-.44,4.51,4.51,0,0,0,1.79-3.95c0-3.76-2.57-4.73-4.2-4.73a9.94,9.94,0,0,0-1.63.09c-.19.06-.25.16-.25.37Z"/><path d="M255,70.13c.06,2.07.41,2.7.94,2.88a4.66,4.66,0,0,0,1.44.19c.31,0,.47.13.47.28s-.25.28-.63.28c-1.79,0-3.07-.09-3.57-.09-.25,0-1.57.09-3,.09-.38,0-.63,0-.63-.28s.19-.28.44-.28a5.67,5.67,0,0,0,1.25-.12c.72-.19.81-.91.85-3.23l.25-15.8c0-.53.19-.91.47-.91s.72.41,1.19.88S259,58.59,263,62.51c1.88,1.85,5.55,5.61,6,6h.12l-.28-11.85c0-1.63-.28-2.1-.94-2.35a4.6,4.6,0,0,0-1.44-.16c-.35,0-.44-.12-.44-.28s.28-.25.69-.25c1.44,0,2.91.06,3.51.06.31,0,1.35-.06,2.7-.06.38,0,.63,0,.63.25s-.16.28-.47.28a2.8,2.8,0,0,0-.85.09c-.75.22-1,.69-1,2.19l-.31,16.8c0,.6-.22.85-.44.85a1.64,1.64,0,0,1-1.13-.56c-1.72-1.6-5.17-4.89-8.05-7.68s-5.93-6.11-6.46-6.58h-.09Z"/><path d="M126.78,83.71h20c4.16,0,4.16-1.13,0-1.13h-20c-4.16,0-4.16,1.13,0,1.13Z"/><path d="M154.71,82.46c0-1.21,0-1.42,0-1.66s-.07-.35-.27-.38a1.25,1.25,0,0,0-.25,0c-.11,0-.15,0-.15-.09s0-.09.18-.09l1.2,0,1.36,0c.14,0,.16,0,.16.09s-.06.08-.16.09l-.18,0c-.22,0-.29.13-.32.39s0,.44,0,1.65v1.36c0,.59,0,1.33,0,1.66a.36.36,0,0,0,.31.39,2.16,2.16,0,0,0,.33,0c.13,0,.17.05.17.1s0,.08-.17.08l-1.52,0-1.2,0c-.13,0-.19,0-.19-.09s0-.09.13-.09l.26,0c.17,0,.24-.2.26-.42a14.34,14.34,0,0,0,.05-1.63Z"/><path d="M159,80.5c0-.26,0-.39.15-.39s.08,0,.3.17c.39.31,1.62,1.36,2.62,2.24l1.54,1.34,0-2.74c0-.43-.07-.64-.42-.69l-.32,0c-.11,0-.14-.05-.14-.09s.07-.09.15-.09l1.21,0,.94,0c.13,0,.17,0,.17.08s0,.09-.13.1l-.18,0c-.27,0-.36.15-.39.65-.07,1.46-.1,3-.11,4.61,0,.45-.05.53-.17.53s-.41-.2-1-.72-1.19-1-1.58-1.36-1.12-1-1.81-1.6l.08,2.52c0,.54,0,.76.28.82a2,2,0,0,0,.4.05c.13,0,.17,0,.17.09s-.05.09-.2.09l-1,0-1.15,0c-.13,0-.18,0-.18-.09s0-.08.14-.09l.22,0c.33,0,.4-.22.43-.94C158.93,83.34,158.93,81.54,159,80.5Z"/><path d="M169.64,83.82c0,.59,0,1.28,0,1.61s.08.39.32.43l.32,0c.14,0,.18.05.18.11s0,.07-.19.07l-1.51,0-1.22,0c-.13,0-.19,0-.19-.08s.07-.09.16-.1l.26,0c.18,0,.23-.19.26-.41s0-.88,0-1.64v-3c-.31,0-.82,0-1.22,0s-.59.13-.69.45a1.38,1.38,0,0,1-.06.17c0,.05,0,.12-.1.12s-.08-.07-.07-.16c0-.38.12-.78.18-1.14,0-.12.06-.17.11-.17s.11,0,.23.05a6.94,6.94,0,0,0,.91.06H171a2.75,2.75,0,0,0,.48,0l.26,0c.09,0,.08,0,.08.27s-.05.9-.06,1.08-.05.16-.1.16-.08,0-.09-.13,0-.14,0-.19c0-.24-.13-.41-.55-.46s-.72-.05-1.36-.05Z"/><path d="M173.55,82.46c0-1.29,0-1.43,0-1.68a.34.34,0,0,0-.29-.36l-.24,0c-.12,0-.13-.05-.13-.1s0-.08.17-.08c.48,0,.86,0,1.2,0h2.33a2.44,2.44,0,0,0,.46,0l.13,0s.06,0,.05.08a3.47,3.47,0,0,0-.06.38c0,.2,0,.36,0,.84,0,.06,0,.13-.09.13s-.08,0-.09-.11,0-.17,0-.29-.14-.29-.53-.32l-1.2,0s-.06,0-.06.08v1.64c0,.05,0,.07.06.07h1.11c.44,0,.55,0,.65-.2s.07-.1.11-.1.06.05.06.1-.05.43-.06.72,0,.58,0,.67,0,.13-.08.13-.08,0-.09-.13,0-.1,0-.15c0-.24-.13-.39-.56-.41-.25,0-.86,0-1.11,0,0,0-.05,0-.05.06v.56c0,.26,0,.63,0,.94,0,.55.11.67,1,.67a2.41,2.41,0,0,0,.74-.09c.22-.09.31-.28.39-.64q0-.14.11-.14c.06,0,.07.06.07.16a7.57,7.57,0,0,1-.12,1.12c-.06.2-.13.21-.42.21-1.2,0-1.77,0-2.63,0-.38,0-.76,0-1.22,0-.15,0-.19,0-.19-.1s0-.08.16-.08l.23,0c.26,0,.29-.35.31-.9,0-.3,0-.73,0-1.16Z"/><path d="M179.31,82.46c0-1.21,0-1.33,0-1.58s-.16-.44-.33-.46l-.28,0c-.1,0-.13,0-.13-.09s0-.09.16-.09l1.25,0,1.38,0a3.76,3.76,0,0,1,1.68.26,1.29,1.29,0,0,1,.76,1.21,1.9,1.9,0,0,1-1.07,1.52,18.41,18.41,0,0,0,1.49,2c.41.47.6.59.85.63l.22,0c.08,0,.13.05.13.1s-.09.08-.16.08h-.7a2.88,2.88,0,0,1-1.61-.28,3,3,0,0,1-.77-.93c-.38-.63-.51-.89-.66-1.12a.09.09,0,0,0-.09,0h-.54a.06.06,0,0,0-.06.06v.48c0,.58,0,1,0,1.19s.06.36.3.42a1.78,1.78,0,0,0,.37.05c.14,0,.14.05.14.1s0,.08-.15.08l-1.54,0-1.19,0c-.13,0-.16,0-.16-.1s.05-.08.14-.08l.28,0c.16,0,.23-.17.25-.45s0-.84,0-1.6Zm1.48.48a.15.15,0,0,0,.07.12,1.63,1.63,0,0,0,.66.11A.88.88,0,0,0,182,83a1.46,1.46,0,0,0-.88-2.28.87.87,0,0,0-.3,0s-.05,0-.05.09Z"/><path d="M186.75,80.5c0-.26,0-.39.15-.39s.08,0,.3.17c.39.31,1.62,1.36,2.62,2.24l1.54,1.34,0-2.74c0-.43-.07-.64-.42-.69l-.32,0c-.11,0-.14-.05-.14-.09s.07-.09.15-.09l1.21,0,.94,0c.13,0,.17,0,.17.08s0,.09-.13.1l-.18,0c-.27,0-.36.15-.39.65-.07,1.46-.1,3-.11,4.61,0,.45-.05.53-.17.53s-.41-.2-1-.72-1.19-1-1.58-1.36-1.12-1-1.81-1.6l.08,2.52c0,.54,0,.76.28.82a2,2,0,0,0,.4.05c.13,0,.17,0,.17.09s-.05.09-.2.09l-1,0-1.15,0c-.13,0-.18,0-.18-.09s0-.08.14-.09l.22,0c.33,0,.4-.22.43-.94C186.71,83.34,186.71,81.54,186.75,80.5Z"/><path d="M194.75,82.46c0-1.29,0-1.43,0-1.68a.34.34,0,0,0-.29-.36l-.24,0c-.12,0-.14-.05-.14-.1s0-.08.17-.08c.48,0,.86,0,1.2,0h2.33a2.43,2.43,0,0,0,.46,0l.13,0s.06,0,.05.08,0,.2-.06.38,0,.36,0,.84c0,.06,0,.13-.09.13s-.08,0-.09-.11,0-.17,0-.29-.14-.29-.53-.32l-1.2,0s-.06,0-.06.08v1.64c0,.05,0,.07.06.07h1.11c.44,0,.55,0,.65-.2s.07-.1.11-.1.06.05.06.1-.05.43-.06.72,0,.58,0,.67,0,.13-.08.13-.08,0-.09-.13,0-.1,0-.15c0-.24-.14-.39-.56-.41-.25,0-.86,0-1.11,0,0,0-.05,0-.05.06v.56c0,.26,0,.63,0,.94,0,.55.11.67,1,.67a2.41,2.41,0,0,0,.74-.09c.22-.09.31-.28.39-.64,0-.09.05-.14.11-.14s.07.06.07.16a7.59,7.59,0,0,1-.12,1.12c-.06.2-.13.21-.42.21-1.2,0-1.77,0-2.63,0l-1.22,0c-.15,0-.19,0-.19-.1s0-.08.16-.08l.23,0c.26,0,.29-.35.31-.9,0-.3,0-.73,0-1.16Z"/><path d="M203.14,83.82c0,.59,0,1.28,0,1.61s.08.39.32.43l.32,0c.14,0,.18.05.18.11s0,.07-.19.07l-1.51,0-1.22,0c-.13,0-.19,0-.19-.08s.07-.09.16-.1l.26,0c.18,0,.23-.19.26-.41s0-.88,0-1.64v-3c-.3,0-.82,0-1.22,0s-.59.13-.69.45a1.46,1.46,0,0,1-.06.17c0,.05,0,.12-.1.12s-.08-.07-.07-.16c0-.38.12-.78.18-1.14,0-.12.06-.17.11-.17s.11,0,.23.05a6.91,6.91,0,0,0,.91.06h3.58a2.73,2.73,0,0,0,.48,0l.26,0c.09,0,.08,0,.08.27s-.05.9-.06,1.08-.05.16-.1.16-.08,0-.09-.13,0-.14,0-.19c0-.24-.13-.41-.55-.46s-.72-.05-1.36-.05Z"/><path d="M216,85.08c.06.5.16.7.43.77a1.32,1.32,0,0,0,.37.05c.12,0,.14,0,.14.1s0,.08-.17.08c-.78,0-1.25,0-2.32,0-.13,0-.16-.06-.16-.1s0-.06.08-.08.17-.08.13-.47l-.24-2.62-1.63,2.86c-.22.4-.29.45-.35.45s-.13-.06-.38-.43c-.33-.52-.74-1.24-1.11-1.82-.14-.24-.46-.8-.58-1l-.2,2c0,.39,0,.54,0,.65s.07.36.29.4l.29,0c.11,0,.15,0,.15.08s0,.1-.18.1l-1.06,0-1,0c-.08,0-.16,0-.16-.1s0-.07.14-.08l.23,0c.23,0,.34-.18.43-.77l.71-4.68c0-.26.1-.33.18-.33s.15.08.32.33L212.67,84l2.2-3.59c.15-.22.22-.29.3-.29s.13.11.17.32Z"/><path d="M219.53,84.6c-.05,0-.08.05-.09.08l-.19.46a1.58,1.58,0,0,0-.13.48c0,.26.34.27.55.29s.14,0,.14.08,0,.1-.15.1c-.39,0-.66,0-1.12,0-.09,0-.61,0-1,0-.13,0-.16,0-.16-.09s0-.09.14-.09c.39,0,.59-.15.82-.68l2.15-4.59c.19-.41.28-.53.38-.53s.16.12.31.42,1.59,3.35,2.12,4.53c.28.57.42.78.73.82l.18,0c.1,0,.15,0,.15.09s-.07.09-.16.09l-2.31,0c-.11,0-.16,0-.16-.08s.05-.07.11-.09.15,0,.11-.13l-.49-1.1a.08.08,0,0,0-.07,0Zm1.59-.71c.05,0,.05,0,0,0l-.71-1.6s0,0,0,0l-.66,1.59s0,0,0,0Z"/><path d="M225.84,82.46c0-1.21,0-1.33,0-1.58s-.16-.44-.33-.46l-.28,0c-.1,0-.13,0-.13-.09s0-.09.16-.09l1.25,0,1.38,0a3.76,3.76,0,0,1,1.68.26,1.29,1.29,0,0,1,.76,1.21,1.9,1.9,0,0,1-1.07,1.52,18.52,18.52,0,0,0,1.49,2c.41.47.6.59.85.63l.22,0c.08,0,.13.05.13.1s-.09.08-.16.08h-.7a2.87,2.87,0,0,1-1.61-.28,3,3,0,0,1-.77-.93c-.38-.63-.51-.89-.66-1.12a.09.09,0,0,0-.09,0h-.54a.06.06,0,0,0-.06.06v.48c0,.58,0,1,0,1.19s.06.36.3.42a1.78,1.78,0,0,0,.37.05c.14,0,.14.05.14.1s0,.08-.15.08l-1.54,0-1.19,0c-.14,0-.16,0-.16-.1s.05-.08.14-.08l.28,0c.16,0,.23-.17.25-.45s0-.84,0-1.6Zm1.48.48a.15.15,0,0,0,.07.12,1.63,1.63,0,0,0,.66.11.88.88,0,0,0,.49-.13,1.46,1.46,0,0,0-.88-2.28.87.87,0,0,0-.3,0s-.05,0-.05.09Z"/><path d="M234.78,82.92c.47-.43,1-1,1.73-1.76.24-.26.4-.47.4-.59s0-.14-.22-.18-.15,0-.15-.09,0-.08.14-.08l.86,0,1.19,0c.14,0,.18,0,.18.08s-.05.08-.15.09l-.26,0a2.13,2.13,0,0,0-1.08.65c-.37.34-1.22,1.21-1.42,1.42a31.65,31.65,0,0,0,2.16,2.62,3.21,3.21,0,0,0,.74.65,1.12,1.12,0,0,0,.4.13c.13,0,.16,0,.16.1s-.08.08-.16.08h-.81c-1.08,0-1.47-.11-1.89-.51a19.15,19.15,0,0,1-1.83-2.39v.65c0,.59,0,1.31,0,1.63a.39.39,0,0,0,.37.42l.34,0c.1,0,.13.05.13.09s0,.09-.15.09l-1.53,0-1.25,0c-.09,0-.16,0-.16-.08s.06-.09.16-.1l.18,0c.28,0,.31-.22.33-.45s.05-.84.05-1.6V82.46c0-1.21,0-1.42,0-1.68a.34.34,0,0,0-.31-.36l-.3,0c-.09,0-.16,0-.16-.1s0-.08.21-.08l1.26,0,1.34,0c.15,0,.17,0,.17.09s0,.08-.15.09l-.2,0c-.3,0-.32.22-.33.47s0,.37,0,1.58Z"/><path d="M240.88,82.46c0-1.29,0-1.43,0-1.68a.35.35,0,0,0-.29-.36l-.24,0c-.12,0-.13-.05-.13-.1s0-.08.17-.08c.48,0,.86,0,1.2,0h2.33a2.43,2.43,0,0,0,.46,0l.13,0s.06,0,.05.08a3.6,3.6,0,0,0-.06.38c0,.2,0,.36,0,.84,0,.06,0,.13-.09.13s-.08,0-.09-.11,0-.17,0-.29-.14-.29-.53-.32l-1.2,0s-.06,0-.06.08v1.64c0,.05,0,.07.06.07h1.11c.44,0,.55,0,.65-.2s.07-.1.11-.1.06.05.06.1-.05.43-.06.72,0,.58,0,.67,0,.13-.08.13-.08,0-.09-.13,0-.1,0-.15c0-.24-.13-.39-.56-.41-.25,0-.86,0-1.11,0,0,0-.05,0-.05.06v.56c0,.26,0,.63,0,.94,0,.55.11.67,1,.67a2.4,2.4,0,0,0,.74-.09c.22-.09.31-.28.39-.64,0-.09.05-.14.11-.14s.07.06.07.16a7.57,7.57,0,0,1-.12,1.12c-.06.2-.13.21-.42.21-1.2,0-1.77,0-2.62,0l-1.22,0c-.15,0-.19,0-.19-.1s0-.08.16-.08l.23,0c.26,0,.29-.35.31-.9,0-.3,0-.73,0-1.16Z"/><path d="M249.27,83.82c0,.59,0,1.28,0,1.61s.08.39.32.43l.32,0c.14,0,.18.05.18.11s0,.07-.19.07l-1.51,0-1.22,0c-.13,0-.19,0-.19-.08s.07-.09.16-.1l.26,0c.18,0,.23-.19.26-.41s0-.88,0-1.64v-3c-.3,0-.82,0-1.22,0s-.59.13-.69.45a1.2,1.2,0,0,1-.06.17c0,.05,0,.12-.1.12s-.08-.07-.07-.16c0-.38.12-.78.18-1.14,0-.12.06-.17.11-.17s.11,0,.23.05a7,7,0,0,0,.91.06h3.58a2.77,2.77,0,0,0,.48,0l.26,0c.09,0,.08,0,.08.27s-.05.9-.06,1.08-.05.16-.1.16-.08,0-.09-.13,0-.14,0-.19c0-.24-.13-.41-.55-.46s-.72-.05-1.36-.05Z"/><path d="M253.2,82.46c0-1.21,0-1.42,0-1.66s-.07-.35-.27-.38a1.25,1.25,0,0,0-.25,0c-.11,0-.15,0-.15-.09s0-.09.18-.09l1.2,0,1.36,0c.14,0,.16,0,.16.09s-.06.08-.16.09l-.18,0c-.22,0-.29.13-.32.39s0,.44,0,1.65v1.36c0,.59,0,1.33,0,1.66a.36.36,0,0,0,.31.39,2.16,2.16,0,0,0,.33,0c.14,0,.17.05.17.1s0,.08-.17.08l-1.52,0-1.2,0c-.13,0-.19,0-.19-.09s0-.09.13-.09l.26,0c.17,0,.24-.2.26-.42a14.47,14.47,0,0,0,.05-1.63Z"/><path d="M257.45,80.5c0-.26,0-.39.15-.39s.08,0,.3.17c.39.31,1.62,1.36,2.62,2.24l1.54,1.34,0-2.74c0-.43-.07-.64-.42-.69l-.32,0c-.11,0-.14-.05-.14-.09s.07-.09.15-.09l1.21,0,.94,0c.13,0,.17,0,.17.08s0,.09-.13.1l-.18,0c-.27,0-.36.15-.39.65-.07,1.46-.1,3-.11,4.61,0,.45-.05.53-.17.53s-.41-.2-1-.72-1.19-1-1.58-1.36-1.12-1-1.81-1.6l.08,2.52c0,.54,0,.76.28.82a1.94,1.94,0,0,0,.4.05c.13,0,.17,0,.17.09s-.05.09-.2.09l-1,0-1.15,0c-.14,0-.18,0-.18-.09s0-.08.14-.09l.22,0c.33,0,.4-.22.43-.94C257.42,83.34,257.42,81.54,257.45,80.5Z"/><path d="M270.52,85.28c0,.51,0,.57-.18.62a7.16,7.16,0,0,1-2,.29c-2.33,0-3.86-1-3.86-3A2.77,2.77,0,0,1,266,80.61a4.64,4.64,0,0,1,2.34-.51,9,9,0,0,1,1.26.1c.3,0,.57.09.8.1.08,0,.1.05.07.13a7.19,7.19,0,0,0-.1,1.46c0,.13,0,.17-.1.17s-.08-.08-.09-.14a1.52,1.52,0,0,0-.07-.31c-.1-.6-.83-1-2-1a1.7,1.7,0,0,0-1.41.57,2.54,2.54,0,0,0-.46,1.6c0,1.33.6,2.85,2.2,2.85a.78.78,0,0,0,.48-.11.21.21,0,0,0,.08-.19V85c0-.31,0-.6,0-.9,0-.48-.11-.65-.4-.68l-.35,0a.13.13,0,0,1-.13-.11s0-.07.17-.07l1.4,0,1.33,0c.11,0,.18,0,.18.08s0,.07-.13.1l-.22,0c-.21,0-.29.11-.3.38a9,9,0,0,0,0,1Z"/><path d="M0,56.47q2.48,7,4.79,14c.19.58,2.42,1.28,2.31.81-1.48-6.41-3-13.08-2-19.68a6.22,6.22,0,0,1,.54-2.32c.51-.74.26-.69.8-.05.92,1.09,1.29,3.68,1.73,5,1.2,3.67,2.28,7.39,3.25,11.13.14.55,2.36,1.38,2.31.81-.34-3.8-.53-7.62-.55-11.43q0-3.28.15-6.57c.08-1.58-.15-3.84,1.53-4.67l-2.15-.86c2.09,2.9,3.17,6.49,4.48,9.78l4.09,10.24c.26.65,2.44,1.13,2.31.81L19.19,52.29c-1.24-3.11-2.29-6.38-4.27-9.12-.32-.44-1.59-1.14-2.15-.86-1.54.75-1.55,2.33-1.65,3.87-.14,2.22-.19,4.45-.2,6.68,0,4.18.18,8.34.54,12.5l2.31.81c-1.29-5-2.78-9.93-4.49-14.79-.65-1.83-1.75-4.94-4.38-4.48-3.09.53-2.49,8-2.36,10.35a77.85,77.85,0,0,0,2.25,13.2l2.31.81q-2.31-7-4.79-14c-.23-.65-2.44-1.16-2.31-.81Z"/><path d="M25.12,40.42c-3.43-.94-3.06,3.42-3,5.71a28.19,28.19,0,0,0,1.06,7.17,3.07,3.07,0,0,0,1.37,2.2c2.66,1.47,3.7-2,4.16-4a13.11,13.11,0,0,0,.23-4.61c-.27-2.09-1.43-4.05-.84-6.18l-2.36-.81c.9,2.39,1.8,4.77,2.71,7.16.57,1.5,1.06,3,2.43,3.94s4.8,1.34,4.42-1.22c-.11-.73-2.48-1.4-2.37-.67s0,.92-.67.67q-1.11.2-1.11-1.17c-.36-.88-.68-1.79-1-2.68l-2-5.37c-.17-.45-2.14-1.6-2.36-.81-.65,2.36.62,4.5.86,6.84a12.18,12.18,0,0,1-.34,4.31c-.18.68-.94,3.59-1.91,3.57l1.66.67c-1.32-1.31-1.92-13.93-.64-13.57,1.66.46.82-.88-.25-1.18Z"/><path d="M40.86,34c0-1.49-1.71-1.59-2.81-1-2.14,1.15-2.37,5.24-2.47,7.32-.12,2.46.75,12.85,5.66,9.3,1.91-1.38,2.11-5.07,2.16-7.18a31.29,31.29,0,0,0-1.24-8.79c-1.69-6.4-4.42-12.76-3.15-19.49l-2.45.46A158.92,158.92,0,0,0,47.11,50.65c.38.9,2.17.21,2.45-.46a3,3,0,0,0,.14-2.31c-.24-.87-2.69-.24-2.45.63a2,2,0,0,1-.14,1.95L49.57,50A158.92,158.92,0,0,1,39,13.95c-.15-.88-2.32-.24-2.45.46C35.08,22.24,38.83,29.45,40.35,37a25.41,25.41,0,0,1,.58,6.11,17.23,17.23,0,0,1-.41,3.11c-.22,1-.58,2.94-1.43,1A16,16,0,0,1,38,41.49c-.07-2.06,0-6.44,1.77-7.92l-1.46.48.07.19c0,1,2.45.55,2.45-.28Z"/><path d="M48.06,34.57a6.79,6.79,0,0,0,5.36,2.85c3,0,4.12-3.12,4.17-5.66,0-2.22-.37-5.29-2.8-6-2.16-.62-3.42.22-3.95,2.41a27.25,27.25,0,0,0-.12,10.93,4,4,0,0,0,4,3.64c5.84.58,10.92-5.42,12.4-10.45.08-.26-2.37-.87-2.49-.46a15,15,0,0,1-6,8.36c-1.62,1.08-4.49,3-5.29.16a21.31,21.31,0,0,1-.55-5.4,30.44,30.44,0,0,1,.38-5.47,7,7,0,0,1,.58-2.13c.73-1.39.67-.16,1,1,.72,2.68-.33,11.33-4.25,6.58-.42-.51-2.42-.32-2.43-.32Z"/><path d="M73.58,4.17l8.69,20.15c.41,1,2.74.89,2.41-.36-.94-3.63-2-7.81-.07-11.3.62-1.1,1.92-2.23,3.35-1.78.66.21,1.31,1.88,1.64,2.52a17.14,17.14,0,0,1,1.73,5.17c.47,2.87.59,8.94-2.13,10.94C85.84,32,82,22.62,81.08,20.4c-.46-1.16-2.87-.77-2.32.62C80.2,24.67,84,33.6,89.45,31.89c5-1.59,5.07-10.12,4.22-14.2-.74-3.56-3.53-11.17-8.48-8.83-5.66,2.67-4.23,10.5-3,15.21l2.41-.36L75.9,3.55c-.49-1.14-2.91-.75-2.32.62Z"/><path d="M93.32,8.74c.46,2,4.23,14.67,7.75,9.18a11.33,11.33,0,0,0,.93-3.31c.4-1.67.76-3.35,1-5.05a23.58,23.58,0,0,0-.42-9.35l-2.21,1.23c3,8.45,7.5,16.27,10.4,24.75a45.64,45.64,0,0,1,2.58,12.31,26.7,26.7,0,0,1-.27,6.11c-.34,1.87-.57,3.11-3.17,3.46a12.3,12.3,0,0,1-3.79-.42c-.71-.14-2.65,1.36-1.64,1.56,3.35.66,7.65.84,9.82-2.38,1.18-1.75,1.26-4.17,1.34-6.2a36.16,36.16,0,0,0-.67-8.27C112.81,21,106.4,11,102.58.21c-.24-.68-2.42.43-2.21,1.23a22.45,22.45,0,0,1,.41,8.62c-.16,1.28-.4,2.54-.67,3.8s-.43,3.57-1.28,4.57l1.57-.87c-1.32.14-2.71-3.75-3.13-4.7a30.29,30.29,0,0,1-1.73-5.36c-.14-.62-2.41.37-2.21,1.23Z"/></svg>